<?xml version="1.0" encoding="UTF-8" standalone="no"?>
<!-- Created with Inkscape (http://www.inkscape.org/) -->

<svg
   xmlns:dc="http://purl.org/dc/elements/1.1/"
   xmlns:cc="http://creativecommons.org/ns#"
   xmlns:rdf="http://www.w3.org/1999/02/22-rdf-syntax-ns#"
   xmlns:svg="http://www.w3.org/2000/svg"
   xmlns="http://www.w3.org/2000/svg"
   xmlns:sodipodi="http://sodipodi.sourceforge.net/DTD/sodipodi-0.dtd"
   xmlns:inkscape="http://www.inkscape.org/namespaces/inkscape"
   width="10mm"
   height="10mm"
   viewBox="0 0 10 10"
   version="1.1"
   id="svg924"
   inkscape:version="0.92.3 (2405546, 2018-03-11)"
   sodipodi:docname="logo.svg">
  <defs
     id="defs918" />
  <sodipodi:namedview
     id="base"
     pagecolor="#ffffff"
     bordercolor="#666666"
     borderopacity="1.0"
     inkscape:pageopacity="0.0"
     inkscape:pageshadow="2"
     inkscape:zoom="5.6"
     inkscape:cx="43.006989"
     inkscape:cy="-7.3457212"
     inkscape:document-units="mm"
     inkscape:current-layer="layer1"
     showgrid="false"
     fit-margin-top="0"
     fit-margin-left="0"
     fit-margin-right="0"
     fit-margin-bottom="0"
     inkscape:window-width="1364"
     inkscape:window-height="747"
     inkscape:window-x="0"
     inkscape:window-y="19"
     inkscape:window-maximized="0" />
  <metadata
     id="metadata921">
    <rdf:RDF>
      <cc:Work
         rdf:about="">
        <dc:format>image/svg+xml</dc:format>
        <dc:type
           rdf:resource="http://purl.org/dc/dcmitype/StillImage" />
        <dc:title></dc:title>
      </cc:Work>
    </rdf:RDF>
  </metadata>
  <g
     inkscape:label="Layer 1"
     inkscape:groupmode="layer"
     id="layer1"
     transform="translate(127.46429,-75.797623)">
    <path
       style="opacity:1;fill:#efc8aa;fill-opacity:1;stroke:none;stroke-width:0.32445073;stroke-miterlimit:4;stroke-dasharray:none;stroke-dashoffset:0;stroke-opacity:1"
       d="m -126.49543,75.797623 h 8.06229 c 0.53675,0 0.96885,0.432108 0.96885,0.968852 v 8.062296 c 0,0.536744 -0.4321,0.968852 -0.96885,0.968852 h -8.06229 c -0.53675,0 -0.96886,-0.432108 -0.96886,-0.968852 v -8.062296 c 0,-0.536744 0.43211,-0.968852 0.96886,-0.968852 z"
       id="rect885" />
    <g
       aria-label="G"
       style="font-style:normal;font-variant:normal;font-weight:bold;font-stretch:normal;font-size:9.26041698px;line-height:100%;font-family:'Space Grotesk';-inkscape-font-specification:'Space Grotesk Bold';letter-spacing:0px;word-spacing:0px;fill:#689e60;fill-opacity:0.6901961;stroke:none;stroke-width:0.26458332px;stroke-linecap:butt;stroke-linejoin:miter;stroke-opacity:1"
       id="text889">
      <path
         d="m -125.09425,81.538452 c 0,1.722438 1.09273,2.629959 2.68552,2.629959 1.67614,0 2.5744,-0.861219 2.5744,-2.407709 v -1.074208 h -2.79665 v 1.074208 h 1.57427 v 0.06482 c 0,0.777875 -0.37968,1.250157 -1.35202,1.250157 -0.95382,0 -1.46315,-0.592667 -1.46315,-1.481667 v -1.592792 c 0,-0.814917 0.54637,-1.481667 1.46315,-1.481667 0.889,0 1.35202,0.518584 1.35202,1.296459 v 0.0926 h 1.22238 v -0.07408 c 0,-1.518709 -0.93531,-2.407709 -2.5744,-2.407709 -1.63909,0 -2.68552,1.018646 -2.68552,2.629959 z"
         style="font-style:normal;font-variant:normal;font-weight:bold;font-stretch:normal;font-family:'Space Grotesk';-inkscape-font-specification:'Space Grotesk Bold';fill:#689e60;fill-opacity:0.6901961;stroke-width:0.26458332px"
         id="path1498" />
    </g>
  </g>
</svg>
