<?xml version="1.0" standalone="no"?>
<!DOCTYPE svg PUBLIC "-//W3C//DTD SVG 20010904//EN"
 "http://www.w3.org/TR/2001/REC-SVG-20010904/DTD/svg10.dtd">
<svg version="1.0" xmlns="http://www.w3.org/2000/svg"
 width="700.000000pt" height="700.000000pt" viewBox="0 0 700.000000 700.000000"
 preserveAspectRatio="xMidYMid meet">
<metadata>
Created by potrace 1.11, written by Peter Selinger 2001-2013
</metadata>
<g transform="translate(0.000000,700.000000) scale(0.100000,-0.100000)"
fill="#000000" stroke="none">
<path d="M571 6988 c-135 -19 -272 -91 -376 -196 -101 -102 -164 -231 -185
-377 -8 -59 -10 -860 -8 -2965 3 -2741 4 -2888 21 -2945 37 -124 85 -204 182
-300 98 -99 178 -146 305 -182 62 -17 194 -18 2990 -18 2796 0 2928 1 2990 18
127 36 207 83 305 182 99 98 146 178 182 305 17 62 18 194 18 2985 0 2799 -1
2923 -18 2992 -60 234 -241 418 -482 490 -57 17 -202 18 -2960 19 -1724 1
-2926 -2 -2964 -8z"/>
</g>
</svg>
